<svg xmlns="http://www.w3.org/2000/svg" width="38" height="125"><defs><linearGradient id="a" x1="353.937%" x2="-37.517%" y1="105.026%" y2="105.026%"><stop offset="0%" stop-color="#FF0"/><stop offset="41.941%" stop-color="#FF6D00"/><stop offset="100%" stop-color="#EA288C"/></linearGradient></defs><path fill="url(#a)" fill-opacity=".9" fill-rule="evenodd" d="M312.93 283.218c-10.889-7.814-13.297-32.798-6.475-48.444 1.33-3.052 5.559-13.614 6.476-16.828 5.028-17.584 4.499-40.633-8.43-52.744-13.673-12.808-20.875-44.743 3.851-73.206 24.727-28.463 51.54-25.017 60.407-24.712 11.535.398 31.94 16.483 39.22 19.754 29.298 13.153 35.716 25.765 55.806 50.374 8.681 10.651 9.438 22.84 2.759 35.16-21.902 40.434-37.606 75.725-83.564 87.999-1.467.39-13.141 8.523-14.22 9.649-19.853 20.708-44.94 20.812-55.83 12.998z" opacity=".8" transform="rotate(-13 -110.575 1375.041)"/></svg>