<svg xmlns="http://www.w3.org/2000/svg" width="27" height="27"><path fill-rule="evenodd" d="M25.515 1.485C24.525.495 23.332 0 21.938 0H5.062C3.668 0 2.476.495 1.485 1.485.495 2.475 0 3.668 0 5.062v16.876c0 1.394.495 2.586 1.485 3.577.99.99 2.183 1.485 3.577 1.485h16.876c1.394 0 2.586-.495 3.577-1.485.99-.99 1.485-2.183 1.485-3.577V5.062c0-1.394-.495-2.586-1.485-3.577zm-21.35 21.12h4.062V10.407H4.165v12.2zM7.858 8.149c-.423.404-.979.607-1.67.607H6.17c-.668 0-1.21-.203-1.626-.607a2.013 2.013 0 0 1-.624-1.504c0-.608.214-1.113.642-1.511.427-.399.982-.598 1.66-.598.68 0 1.225.2 1.635.598.41.398.622.903.633 1.511 0 .598-.21 1.1-.632 1.504zm14.977 14.458h-4.062v-6.522c0-1.84-.68-2.76-2.038-2.76-.516 0-.95.144-1.301.432a2.705 2.705 0 0 0-.791 1.045c-.083.211-.124.539-.124.985v6.82h-4.06c.035-7.36.035-11.426 0-12.2h4.06v1.723c.855-1.335 2.067-2.004 3.639-2.004 1.407 0 2.538.462 3.393 1.389.856.926 1.284 2.29 1.284 4.095v6.997z"/></svg>