<svg xmlns="http://www.w3.org/2000/svg" xmlns:xlink="http://www.w3.org/1999/xlink" width="36" height="44"><defs><linearGradient id="a" x1="50%" x2="50%" y1="-.086%" y2="117.098%"><stop offset="0%" stop-color="#EA288C"/><stop offset="69.782%" stop-color="#FF6D00"/><stop offset="100%" stop-color="#FF0"/></linearGradient><path id="b" d="M18.6 11.019l.346-.274c20.54-16.683 24.471 14.752 22.661 30.657-2.473 21.73-60.55-1.173-23.008-30.383zm.565 19.295c-1.336 0-2.075-1.369-2.075-2.758 0-1.386.74-2.717 2.075-2.717 1.33 0 2.068 1.33 2.068 2.717 0 1.39-.738 2.758-2.068 2.758zm0-7.925c-2.912 0-4.849 2.3-4.849 5.184 0 2.887 1.937 5.185 4.849 5.185 2.904 0 4.838-2.298 4.838-5.185 0-2.884-1.934-5.184-4.838-5.184zm7.897.006c-.978 0-1.773 2.32-1.773 5.183 0 2.864.795 5.183 1.773 5.183.977 0 1.77-2.32 1.77-5.183 0-2.862-.793-5.183-1.77-5.183zm-.023-1.287a1.737 1.737 0 1 0 .004-3.473 1.737 1.737 0 0 0-.004 3.473z"/></defs><use fill="url(#a)" fill-rule="evenodd" transform="translate(-6 -6)" xlink:href="#b"/></svg>