<svg xmlns="http://www.w3.org/2000/svg" xmlns:xlink="http://www.w3.org/1999/xlink" width="32" height="32"><defs><path id="a" d="M18.818 29.111c.4.154.815.274 1.238.36a7.684 7.684 0 0 0 8.78-4.885 27.785 27.785 0 0 0-3.996-1.218l-.107-.023c-.957-.21-1.935-.37-2.92-.477l-1.99 4.394-1.006-.456A27.743 27.743 0 0 1 5.12 13.214l-.447-.964 4.298-2.19a27.513 27.513 0 0 0-.479-2.951l-.027-.127c-.3-1.342-.71-2.68-1.215-3.98-2.993 1.116-5.067 4.045-5.042 7.289a7.765 7.765 0 0 0 .531 2.766l.11.25a29.739 29.739 0 0 0 6.334 9.346 29.739 29.739 0 0 0 9.345 6.334l.291.124zm2.81 2.727a10.11 10.11 0 0 1-3.975-.819l-.987-.425.008-.02a31.942 31.942 0 0 1-9.053-6.36 31.943 31.943 0 0 1-6.36-9.054l-.015.006-.431-.985A9.971 9.971 0 0 1 0 10.308 9.875 9.875 0 0 1 7.635.582l.902-.214.366.851a30.051 30.051 0 0 1 1.718 5.294l.028.131a29.99 29.99 0 0 1 .59 3.97l.06.736-3.71 1.89a25.542 25.542 0 0 0 11.145 11.078l1.715-3.784.773.062c1.343.108 2.682.308 3.978.592l.111.024c1.817.407 3.598.984 5.304 1.719l.852.366-.214.903a9.882 9.882 0 0 1-9.624 7.638z"/></defs><use fill="#020303" fill-rule="evenodd" xlink:href="#a"/></svg>