<svg xmlns="http://www.w3.org/2000/svg" width="27" height="27"><path fill-rule="evenodd" d="M21.31 19.55c-.33.945-1.64 1.729-2.684 1.958-.715.154-1.648.277-4.791-1.045-4.02-1.69-6.609-5.833-6.81-6.102-.194-.269-1.625-2.194-1.625-4.186 0-1.991.997-2.96 1.399-3.377.33-.342.875-.498 1.398-.498.17 0 .322.009.459.016.401.017.603.041.868.685.33.806 1.134 2.798 1.23 3.002.097.205.195.483.058.752-.128.277-.241.4-.443.636s-.393.416-.595.67c-.185.22-.393.456-.16.864.232.399 1.035 1.729 2.219 2.798 1.526 1.379 2.764 1.82 3.207 2.007.33.138.724.105.965-.155.306-.335.684-.89 1.068-1.436.274-.392.62-.44.982-.302.37.13 2.324 1.11 2.725 1.313.402.205.667.302.765.474.095.171.095.978-.235 1.925zM13.503 0h-.006C6.053 0 0 6.055 0 13.5a13.4 13.4 0 0 0 2.57 7.913L.888 26.428l5.189-1.659A13.383 13.383 0 0 0 13.503 27C20.947 27 27 20.944 27 13.5S20.947 0 13.503 0z"/></svg>